<svg width="21" height="20" viewBox="0 0 21 20" fill="none" xmlns="http://www.w3.org/2000/svg">
<path d="M5.2026 10.6747C3.79915 8.51051 2.9229 6.04731 2.64427 3.48301C2.62345 3.25256 2.65083 3.02031 2.72469 2.80103C2.79854 2.58175 2.91725 2.38025 3.07324 2.20936C3.22924 2.03847 3.41911 1.90193 3.63076 1.80844C3.84242 1.71495 4.07122 1.66656 4.3026 1.66634H6.8026C7.20703 1.66236 7.5991 1.80557 7.90574 2.06928C8.21238 2.333 8.41267 2.69921 8.46927 3.09967C8.57479 3.89973 8.77048 4.68528 9.0526 5.44134C9.16472 5.73961 9.18899 6.06377 9.12253 6.37541C9.05606 6.68705 8.90166 6.9731 8.6776 7.19967L7.61927 8.25801M20.0443 0.833008L1.71094 19.1663M9.7776 11.0913C10.6233 11.9378 11.5791 12.6666 12.6193 13.258L13.6776 12.1997C13.9042 11.9756 14.1902 11.8212 14.5019 11.7548C14.8135 11.6883 15.1377 11.7126 15.4359 11.8247C16.192 12.1068 16.9775 12.3025 17.7776 12.408C18.1781 12.4646 18.5443 12.6649 18.808 12.9715C19.0717 13.2782 19.2149 13.6703 19.2109 14.0747V16.5747C19.2119 16.8068 19.1643 17.0365 19.0714 17.2491C18.9784 17.4618 18.842 17.6527 18.671 17.8096C18.5 17.9665 18.2981 18.0859 18.0782 18.1603C17.8584 18.2346 17.6254 18.2622 17.3943 18.2413C14.83 17.9627 12.3668 17.0865 10.2026 15.683C9.19866 15.0456 8.26804 14.2994 7.4276 13.458L9.7776 11.0913Z" stroke="white" stroke-width="1.67" stroke-linecap="round" stroke-linejoin="round"/>
</svg>
