<svg width="21" height="20" viewBox="0 0 21 20" fill="none" xmlns="http://www.w3.org/2000/svg">
<g clip-path="url(#clip0_8382_41240)">
<path d="M10.8802 13.3333V17.5M15.8802 17.5L12.5874 14.756C11.9801 14.2499 11.6764 13.9968 11.3374 13.9001C11.0386 13.8149 10.7218 13.8149 10.423 13.9001C10.084 13.9968 9.78037 14.2499 9.17305 14.756L5.88021 17.5M7.54688 9.16667V10M10.8802 7.5V10M14.2135 5.83333V10M19.2135 2.5H2.54688M3.38021 2.5H18.3802V9.33333C18.3802 10.7335 18.3802 11.4335 18.1077 11.9683C17.868 12.4387 17.4856 12.8212 17.0152 13.0608C16.4804 13.3333 15.7803 13.3333 14.3802 13.3333H7.38021C5.98008 13.3333 5.28001 13.3333 4.74523 13.0608C4.27483 12.8212 3.89238 12.4387 3.65269 11.9683C3.38021 11.4335 3.38021 10.7335 3.38021 9.33333V2.5Z" stroke="#F9FAFB" stroke-width="1.66667" stroke-linecap="round" stroke-linejoin="round"/>
</g>
<defs>
<clipPath id="clip0_8382_41240">
<rect width="20" height="20" fill="white" transform="translate(0.878906)"/>
</clipPath>
</defs>
</svg>
