<svg width="21" height="22" viewBox="0 0 21 22" fill="none" xmlns="http://www.w3.org/2000/svg">
<path d="M16.7135 9.33301V10.9997C16.7135 12.5468 16.099 14.0305 15.005 15.1245C13.911 16.2184 12.4273 16.833 10.8802 16.833M10.8802 16.833C9.33311 16.833 7.84938 16.2184 6.75542 15.1245C5.66146 14.0305 5.04688 12.5468 5.04688 10.9997V9.33301M10.8802 16.833V20.1663M7.54687 20.1663H14.2135M10.8802 1.83301C10.2172 1.83301 9.58128 2.0964 9.11244 2.56524C8.6436 3.03408 8.38021 3.66997 8.38021 4.33301V10.9997C8.38021 11.6627 8.6436 12.2986 9.11244 12.7674C9.58128 13.2363 10.2172 13.4997 10.8802 13.4997C11.5432 13.4997 12.1791 13.2363 12.648 12.7674C13.1168 12.2986 13.3802 11.6627 13.3802 10.9997V4.33301C13.3802 3.66997 13.1168 3.03408 12.648 2.56524C12.1791 2.0964 11.5432 1.83301 10.8802 1.83301Z" stroke="#F9FAFB" stroke-width="2" stroke-linecap="round" stroke-linejoin="round"/>
</svg>
