<svg width="20" height="21" viewBox="0 0 20 21" fill="none" xmlns="http://www.w3.org/2000/svg">
<g clip-path="url(#clip0_8382_17205)">
<path d="M0.832031 1.33357L19.1654 19.6669M12.4987 8.28357V3.83357C12.4993 3.2136 12.2696 2.61551 11.854 2.15541C11.4385 1.69531 10.8668 1.40602 10.2499 1.34372C9.63311 1.28141 9.01512 1.45052 8.51596 1.81823C8.0168 2.18593 7.67207 2.726 7.5487 3.33357M14.1654 14.6252C13.3519 15.4556 12.3088 16.024 11.17 16.2574C10.0313 16.4909 8.84872 16.3788 7.77411 15.9355C6.6995 15.4922 5.78183 14.738 5.13884 13.7695C4.49585 12.8011 4.15686 11.6627 4.16536 10.5002V8.83357M15.832 8.83357V10.5002C15.8317 10.8439 15.8011 11.1869 15.7404 11.5252M9.9987 16.3336V19.6669M6.66536 19.6669H13.332M7.4987 8.00024V10.5002C7.49913 10.9944 7.64599 11.4773 7.92072 11.888C8.19546 12.2987 8.58574 12.6188 9.04229 12.8079C9.49883 12.9969 10.0012 13.0464 10.4858 12.9501C10.9705 12.8538 11.4157 12.6161 11.7654 12.2669L7.4987 8.00024Z" stroke="#F9FAFB" stroke-width="2" stroke-linecap="round" stroke-linejoin="round"/>
</g>
<defs>
<clipPath id="clip0_8382_17205">
<rect width="20" height="20" fill="white" transform="translate(0 0.5)"/>
</clipPath>
</defs>
</svg>
